<?xml version="1.0" standalone="no"?>
<!DOCTYPE svg PUBLIC "-//W3C//DTD SVG 20010904//EN"
 "http://www.w3.org/TR/2001/REC-SVG-20010904/DTD/svg10.dtd">
<svg version="1.0" xmlns="http://www.w3.org/2000/svg"
 width="5500.000000pt" height="1480.000000pt" viewBox="0 0 5500.000000 1480.000000"
 preserveAspectRatio="xMidYMid meet">

<g transform="translate(0.000000,1480.000000) scale(0.100000,-0.100000)"
fill="#000000" stroke="none">
<path d="M12380 10225 c0 -25 -1 -25 -92 -25 -125 0 -168 -8 -168 -30 0 -21
-53 -30 -176 -30 -78 0 -83 -1 -86 -22 -3 -22 -7 -23 -130 -26 l-128 -3 0 -24
c0 -24 -3 -25 -58 -25 -33 0 -93 -3 -135 -6 -67 -6 -76 -9 -79 -28 -3 -20 -10
-21 -105 -24 -102 -3 -103 -3 -103 -27 l0 -25 -135 0 -135 0 0 -25 c0 -23 -4
-25 -47 -25 -27 0 -85 -3 -130 -7 -79 -6 -83 -7 -83 -29 0 -24 0 -24 -130 -24
l-130 0 0 -25 c0 -25 -1 -25 -92 -25 -125 0 -168 -8 -168 -30 0 -21 -53 -30
-176 -30 -83 0 -84 0 -84 -25 l0 -25 -135 0 -135 0 0 -25 c0 -24 -2 -25 -67
-25 -100 0 -143 -9 -143 -30 0 -22 -43 -30 -167 -30 -92 0 -93 0 -93 -25 l0
-24 -132 -3 c-127 -3 -133 -4 -136 -24 -3 -19 -12 -22 -79 -28 -42 -3 -100 -6
-130 -6 -50 0 -53 -1 -53 -25 l0 -25 -130 0 -130 0 0 -25 c0 -25 -1 -25 -92
-25 -130 0 -166 -7 -170 -34 -3 -18 -11 -21 -55 -24 -49 -3 -53 -5 -53 -28 0
-22 -4 -24 -49 -24 -47 0 -50 -2 -53 -27 -2 -22 -9 -29 -30 -31 -22 -3 -28 -9
-28 -28 0 -19 -5 -24 -25 -24 -23 0 -25 -3 -25 -50 0 -47 -2 -50 -25 -50 -21
0 -25 -5 -25 -30 0 -25 -4 -30 -24 -30 -23 0 -24 -3 -31 -110 -6 -99 -9 -110
-26 -110 -19 0 -19 -62 -19 -2850 0 -2843 0 -2850 20 -2850 16 0 20 -7 20 -34
0 -76 12 -126 30 -126 14 0 20 -11 25 -50 6 -44 10 -50 31 -50 20 0 24 -5 24
-30 0 -29 1 -30 50 -30 47 0 50 -2 50 -25 l0 -25 165 0 165 0 0 25 0 24 128 3
c121 3 127 4 130 24 3 19 12 22 79 28 42 3 100 6 130 6 50 0 53 1 53 25 l0 25
130 0 130 0 0 25 c0 25 1 25 93 25 124 0 167 8 167 30 0 22 43 30 168 30 91 0
92 0 92 25 l0 25 135 0 135 0 0 24 c0 22 4 23 83 29 45 4 103 7 130 7 43 0 47
2 47 25 l0 25 130 0 130 0 0 25 c0 25 0 25 99 25 124 0 161 7 161 30 0 20 52
30 156 30 56 0 64 2 64 19 0 23 40 31 168 31 91 0 92 0 92 25 0 25 1 25 89 25
128 0 181 9 181 30 0 23 37 30 161 30 99 0 99 0 99 25 0 25 1 25 93 25 124 0
167 8 167 30 0 22 43 30 168 30 91 0 92 0 92 25 l0 25 130 0 130 0 0 25 c0 24
2 25 64 25 104 0 156 10 156 30 0 20 36 30 106 30 40 0 44 2 44 25 0 21 5 25
30 25 25 0 30 4 30 25 0 20 5 25 25 25 21 0 25 5 25 30 0 25 4 30 25 30 20 0
25 5 25 25 0 20 5 25 25 25 21 0 25 5 25 30 0 25 4 30 25 30 22 0 25 4 25 34
0 18 3 54 6 80 6 40 10 46 30 46 l24 0 -2 2958 -3 2957 -22 3 c-17 3 -23 12
-28 52 -5 40 -11 49 -28 52 -16 2 -23 11 -25 31 -3 21 -9 27 -28 27 -19 0 -24
5 -24 25 0 20 -5 25 -25 25 -20 0 -25 5 -25 25 l0 25 -185 0 -185 0 0 -25z
m-3840 -1719 c0 -19 6 -25 28 -28 19 -2 28 -9 30 -25 3 -17 12 -23 53 -28 43
-6 49 -10 49 -31 0 -19 5 -24 25 -24 20 0 25 -5 25 -24 0 -21 6 -24 55 -31 50
-6 55 -9 55 -31 0 -19 5 -24 25 -24 20 0 25 -5 25 -25 0 -23 3 -25 50 -25 47
0 50 -2 50 -25 0 -21 5 -25 30 -25 27 0 30 -3 30 -30 0 -29 1 -30 50 -30 47 0
50 -2 50 -25 0 -21 5 -25 30 -25 25 0 30 -4 30 -24 0 -21 6 -25 50 -31 44 -6
50 -10 50 -31 0 -19 5 -24 24 -24 21 0 24 -6 31 -55 5 -45 10 -55 26 -55 16 0
19 -7 19 -55 0 -48 -3 -55 -19 -55 -16 0 -21 -10 -26 -55 -7 -49 -10 -55 -31
-55 -19 0 -24 -5 -24 -25 0 -20 -5 -25 -24 -25 -19 0 -25 -6 -28 -27 -2 -20
-9 -29 -24 -31 -17 -2 -23 -12 -28 -47 -6 -35 -11 -44 -29 -47 -16 -2 -23 -11
-25 -30 -3 -22 -9 -28 -28 -28 -20 0 -24 -5 -24 -30 0 -25 -4 -30 -25 -30 -20
0 -25 -5 -25 -25 0 -20 -5 -25 -25 -25 -20 0 -25 -5 -25 -24 0 -19 -6 -25 -27
-28 -22 -2 -29 -9 -31 -30 -3 -22 -9 -28 -28 -28 -19 0 -24 -5 -24 -25 0 -20
-5 -25 -25 -25 -21 0 -25 -5 -25 -30 0 -25 -4 -30 -25 -30 -20 0 -25 -5 -25
-25 0 -21 -5 -25 -30 -25 -27 0 -30 -3 -30 -30 0 -25 -4 -30 -25 -30 -20 0
-25 -5 -25 -25 0 -20 -5 -25 -24 -25 -21 0 -25 -6 -31 -49 -5 -41 -11 -50 -28
-53 -14 -2 -23 -11 -25 -25 -2 -14 -11 -23 -25 -25 -15 -2 -23 -11 -25 -30 -3
-25 -7 -27 -55 -30 -45 -3 -52 -6 -55 -25 -4 -31 -52 -33 -52 -3 0 16 -9 21
-50 26 l-50 7 0 133 0 134 25 0 c20 0 25 5 25 25 0 20 5 25 24 25 19 0 25 6
28 28 2 19 9 28 26 30 16 3 22 10 22 28 0 20 5 24 30 24 27 0 30 3 30 30 0 25
4 30 25 30 20 0 25 5 25 25 0 20 5 25 24 25 21 0 25 6 31 50 6 44 10 50 31 50
19 0 24 5 24 24 0 18 6 25 23 28 16 2 23 11 25 31 3 21 9 27 28 27 19 0 24 5
24 25 0 20 5 25 25 25 21 0 25 5 25 30 0 27 3 30 30 30 25 0 30 4 30 25 0 20
5 25 25 25 21 0 25 5 25 30 0 25 4 30 25 30 14 0 25 6 25 13 0 6 3 29 6 50 6
36 6 37 -25 37 -28 0 -31 3 -31 30 0 27 -3 30 -30 30 -25 0 -30 4 -30 25 0 23
-3 25 -50 25 -47 0 -50 2 -50 25 0 20 -5 25 -25 25 -20 0 -25 5 -25 24 0 22
-5 25 -55 31 -49 7 -55 10 -55 31 0 19 -5 24 -25 24 -20 0 -25 5 -25 24 0 21
-6 25 -50 31 -44 6 -50 10 -50 31 0 20 -5 24 -30 24 -25 0 -30 4 -30 24 0 21
-6 25 -50 31 l-50 7 0 129 0 129 25 0 c21 0 25 5 25 30 0 27 3 30 30 30 25 0
30 4 30 25 0 24 2 25 75 25 73 0 75 -1 75 -24z m2370 -1021 c0 -20 5 -25 25
-25 l25 0 0 -110 0 -110 -25 0 c-20 0 -25 -5 -25 -24 0 -19 -6 -25 -27 -28
-20 -2 -29 -9 -31 -24 -4 -26 -35 -34 -138 -34 -72 0 -74 -1 -74 -25 l0 -24
-127 -3 c-122 -3 -128 -4 -131 -24 -4 -26 -48 -34 -178 -34 -83 0 -84 0 -84
-25 l0 -25 -105 0 -105 0 0 -25 0 -25 -129 0 -129 0 -7 49 c-5 41 -11 50 -28
53 -19 3 -22 10 -25 56 -3 49 -2 52 21 52 22 0 25 5 32 55 6 50 9 55 31 55 19
0 24 5 24 24 0 19 6 24 38 30 20 3 56 6 80 6 38 0 42 2 42 25 l0 25 125 0 125
0 0 25 0 25 110 0 c109 0 110 0 110 24 0 22 5 23 77 30 42 3 100 6 130 6 50 0
53 1 53 25 l0 25 160 0 160 0 0 -25z"/>
</g>
</svg>
